<svg width="20" height="86" viewBox="0 0 20 86" fill="none" xmlns="http://www.w3.org/2000/svg">
<g filter="url(#filter0_d_301_5543)">
<path d="M5 5.86788C5 3.17943 7.17943 1 9.86788 1C13.2961 1 15.6503 4.44922 14.4011 7.64173L8.52948 22.6469C8.17732 23.5469 7.91295 24.4788 7.74007 25.4296L5.47392 37.8935C5.1604 39.6178 5.1515 41.3838 5.44763 43.1112L7.71632 56.3452C7.90456 57.4433 8.24181 58.5105 8.71874 59.5173L13.8539 70.3583C15.3155 73.4438 13.065 77 9.6508 77C7.08224 77 5 74.9178 5 72.3492V5.86788Z" fill="#6952A5"/>
<path d="M5 5.86788C5 3.17943 7.17943 1 9.86788 1C13.2961 1 15.6503 4.44922 14.4011 7.64173L8.52948 22.6469C8.17732 23.5469 7.91295 24.4788 7.74007 25.4296L5.47392 37.8935C5.1604 39.6178 5.1515 41.3838 5.44763 43.1112L7.71632 56.3452C7.90456 57.4433 8.24181 58.5105 8.71874 59.5173L13.8539 70.3583C15.3155 73.4438 13.065 77 9.6508 77C7.08224 77 5 74.9178 5 72.3492V5.86788Z" stroke="#6952A5"/>
</g>
<defs>
<filter id="filter0_d_301_5543" x="0.5" y="0.5" width="18.7412" height="85" filterUnits="userSpaceOnUse" color-interpolation-filters="sRGB">
<feFlood flood-opacity="0" result="BackgroundImageFix"/>
<feColorMatrix in="SourceAlpha" type="matrix" values="0 0 0 0 0 0 0 0 0 0 0 0 0 0 0 0 0 0 127 0" result="hardAlpha"/>
<feOffset dy="4"/>
<feGaussianBlur stdDeviation="2"/>
<feComposite in2="hardAlpha" operator="out"/>
<feColorMatrix type="matrix" values="0 0 0 0 0 0 0 0 0 0 0 0 0 0 0 0 0 0 0.25 0"/>
<feBlend mode="multiply" in2="BackgroundImageFix" result="effect1_dropShadow_301_5543"/>
<feBlend mode="normal" in="SourceGraphic" in2="effect1_dropShadow_301_5543" result="shape"/>
</filter>
</defs>
</svg>
