<svg width="69" height="64" viewBox="0 0 69 64" fill="none" xmlns="http://www.w3.org/2000/svg">
<rect width="69" height="64" rx="32" fill="#E6F6F2"/>
<path d="M51.5598 25.8C50.6314 23.8876 49.2807 22.1494 47.583 20.6822C45.8904 19.2124 43.8798 18.0439 41.6654 17.2429C39.3969 16.4184 36.9595 15.9957 34.4981 16H34.4153C31.9117 16.0107 29.4909 16.4393 27.2107 17.2822C25.0153 18.0914 23.0236 19.262 21.3469 20.7286C19.6657 22.1925 18.3305 23.9247 17.4156 25.8286C16.466 27.8085 15.9848 29.9323 16.0004 32.075C16.0128 34.5536 16.6997 37.0143 17.9826 39.2143V44.6429C17.9826 45.55 18.835 46.2857 19.882 46.2857H26.1638C28.7248 47.401 31.5509 47.9879 34.4194 48H34.5063C36.981 48 39.377 47.5857 41.6364 46.775C43.8397 45.9836 45.8427 44.8287 47.5334 43.375C49.2383 41.9143 50.5791 40.2072 51.5184 38.3036C52.4909 36.3322 52.9875 34.2357 52.9999 32.0714C53.0082 29.8964 52.5199 27.7857 51.5598 25.8ZM26.2382 33.7143C25.1458 33.7143 24.2561 32.9464 24.2561 32C24.2561 31.0536 25.1458 30.2857 26.2382 30.2857C27.3307 30.2857 28.2204 31.0536 28.2204 32C28.2204 32.9464 27.3349 33.7143 26.2382 33.7143ZM34.4981 33.7143C33.4056 33.7143 32.5159 32.9464 32.5159 32C32.5159 31.0536 33.4056 30.2857 34.4981 30.2857C35.5905 30.2857 36.4803 31.0536 36.4803 32C36.4803 32.9464 35.5905 33.7143 34.4981 33.7143ZM42.7579 33.7143C41.6654 33.7143 40.7757 32.9464 40.7757 32C40.7757 31.0536 41.6654 30.2857 42.7579 30.2857C43.8504 30.2857 44.7401 31.0536 44.7401 32C44.7401 32.9464 43.8504 33.7143 42.7579 33.7143Z" fill="#009781"/>
</svg>
