<svg width="59" height="57" viewBox="0 0 59 57" fill="none" xmlns="http://www.w3.org/2000/svg">
<rect width="59" height="57" rx="28.5" fill="#E6F6F2"/>
<path d="M20.1347 20C19.1707 20 18.2462 20.3424 17.5646 20.9519C16.8829 21.5614 16.5 22.388 16.5 23.25V33.75C16.5 34.612 16.8829 35.4386 17.5646 36.0481C18.2462 36.6576 19.1707 37 20.1347 37H30.7593C31.7233 37 32.6478 36.6576 33.3294 36.0481C34.0111 35.4386 34.394 34.612 34.394 33.75V23.25C34.394 22.388 34.0111 21.5614 33.3294 20.9519C32.6478 20.3424 31.7233 20 30.7593 20H20.1347ZM40.1235 35.143L36.0716 31.593V25.5L40.1111 21.872C40.9913 21.082 42.5 21.639 42.5 22.754V34.25C42.5 35.358 41.0081 35.918 40.1235 35.143Z" fill="#009781"/>
</svg>
